# File created by Blade
# Date/Time:  Thu Sep 25 17:54:10 2014
# Frame Rate: 120.000 fps
#------------------------------------------------------
:FULLY-SPECIFIED
:DEGREES
2368
root 0.528900 32.505249 -6.515927 26.379649 2.001478 -0.206222
Spine -34.669390 -29.622677 17.834957
Head -8.600893 23.898870 1.906901
LeftShoulder -6.208100 -52.521279 63.875303
LeftArm 89.302845 28.469690 -96.226554
LeftForeArm 4.135562 -0.000000 96.052538
LeftHand -16.284611 -0.000000 -10.550763
LeftHandThumb1 -26.253704 0.000000 33.147579
RightShoulder -7.941652 10.975513 -43.029507
RightArm 62.649780 -8.192684 111.065363
RightForeArm 47.153447 -0.000000 136.050591
RightHand 20.306692 -0.000000 -46.040929
RightHandThumb1 -24.326973 -0.000000 -32.862282
LeftUpLeg -21.062250 3.992604 -0.698779
LeftLeg -1.091311 -0.000000 0.000000
LeftFoot -5.548253 -2.740943 -1.388006
LeftToeBase 3.908078 -0.000000 -0.000000
RightUpLeg -21.166743 -7.739852 3.544890
RightLeg -0.929873 -0.000000 0.000000
RightFoot -8.564661 -1.670228 11.972257
RightToeBase 15.786339 -0.000000 -0.000000
2369
root 0.529788 32.504688 -6.512516 26.381876 2.047824 -0.206996
Spine -34.719151 -29.698494 17.907761
Head -8.566953 23.943620 1.962037
LeftShoulder -6.584359 -53.059379 64.125428
LeftArm 88.504232 28.508101 -96.684976
LeftForeArm 4.026039 -0.000000 96.007556
LeftHand -16.064210 -0.000000 -10.576089
LeftHandThumb1 -26.253704 0.000000 33.147579
RightShoulder -7.943648 11.040644 -43.046550
RightArm 62.550477 -8.148327 111.047283
RightForeArm 47.055504 -0.000000 136.057404
RightHand 20.333731 -0.000000 -46.148022
RightHandThumb1 -24.326973 -0.000000 -32.862282
LeftUpLeg -21.058011 3.979615 -0.690899
LeftLeg -1.104127 -0.000000 0.000000
LeftFoot -5.550982 -2.761952 -1.361154
LeftToeBase 3.873688 -0.000000 -0.000000
RightUpLeg -21.149320 -7.748222 3.551534
RightLeg -0.948734 -0.000000 0.000000
RightFoot -8.578836 -1.714943 11.966552
RightToeBase 15.821576 -0.000000 -0.000000
2370
root 0.530740 32.504681 -6.509336 26.384055 2.063869 -0.200262
Spine -34.753531 -29.736423 17.948576
Head -8.537065 23.958246 1.997269
LeftShoulder -6.562526 -53.060872 64.138413
LeftArm 88.486137 28.520180 -96.745062
LeftForeArm 4.050748 0.000000 96.047015
LeftHand -16.121488 0.000000 -10.562934
LeftHandThumb1 -26.253704 0.000000 33.147579
RightShoulder -7.961037 11.020337 -43.050441
RightArm 62.529044 -8.148500 111.013976
RightForeArm 47.000794 -0.000000 136.061083
RightHand 20.364030 -0.000000 -46.204599
RightHandThumb1 -24.326973 -0.000000 -32.862282
LeftUpLeg -21.045445 3.967214 -0.693123
LeftLeg -1.126750 -0.000000 0.000000
LeftFoot -5.530990 -2.763515 -1.363736
LeftToeBase 3.848826 -0.000000 -0.000000
RightUpLeg -21.142612 -7.742573 3.537267
RightLeg -0.948283 -0.000000 0.000000
RightFoot -8.585478 -1.725391 11.997852
RightToeBase 15.797290 -0.000000 -0.000000
2371
root 0.531468 32.504478 -6.507207 26.426492 2.102800 -0.199548
Spine -34.843125 -29.772832 18.029997
Head -8.504118 23.963348 2.016202
LeftShoulder -5.916287 -52.122152 63.709043
LeftArm 89.797820 28.443194 -96.033787
LeftForeArm 4.099926 -0.000000 96.143819
LeftHand -16.475228 0.000000 -10.452436
LeftHandThumb1 -26.253704 0.000000 33.147579
RightShoulder -7.963266 10.927238 -43.038073
RightArm 62.595779 -8.164391 110.961897
RightForeArm 46.924153 -0.000000 136.064494
RightHand 20.354726 -0.000000 -46.288640
RightHandThumb1 -24.326973 -0.000000 -32.862282
LeftUpLeg -21.088247 3.961358 -0.692058
LeftLeg -1.126391 -0.000000 0.000000
LeftFoot -5.536582 -2.802520 -1.358365
LeftToeBase 3.897213 -0.000000 -0.000000
RightUpLeg -21.178846 -7.761339 3.551135
RightLeg -0.947674 -0.000000 0.000000
RightFoot -8.589016 -1.721692 12.009022
RightToeBase 15.778516 -0.000000 -0.000000
2372
root 0.533003 32.503978 -6.504027 26.431298 2.138160 -0.198323
Spine -34.890650 -29.822319 18.096371
Head -8.479066 23.975180 2.024755
LeftShoulder -5.850123 -51.968728 63.635505
LeftArm 89.990410 28.468339 -95.943499
LeftForeArm 4.095966 0.000000 96.135148
LeftHand -16.388466 -0.000000 -10.455064
LeftHandThumb1 -26.253704 0.000000 33.147579
RightShoulder -7.968601 10.906180 -43.040549
RightArm 62.589884 -8.161282 110.938985
RightForeArm 46.826230 -0.000000 136.072231
RightHand 20.319665 -0.000000 -46.364074
RightHandThumb1 -24.326973 -0.000000 -32.862282
LeftUpLeg -21.087574 3.950129 -0.688813
LeftLeg -1.136521 -0.000000 0.000000
LeftFoot -5.533851 -2.840789 -1.357181
LeftToeBase 3.915408 -0.000000 -0.000000
RightUpLeg -21.172260 -7.785918 3.563524
RightLeg -0.955826 -0.000000 0.000000
RightFoot -8.595575 -1.740056 11.987938
RightToeBase 15.770358 -0.000000 -0.000000
2373
root 0.534438 32.503603 -6.500157 26.441975 2.154580 -0.200048
Spine -34.933247 -29.839036 18.138111
Head -8.439275 23.975706 2.052633
LeftShoulder -5.777509 -51.859211 63.566931
LeftArm 90.142618 28.493378 -95.878121
LeftForeArm 4.075573 -0.000000 96.125958
LeftHand -16.441074 -0.000000 -10.473065
LeftHandThumb1 -26.253704 0.000000 33.147579
RightShoulder -7.987530 10.860473 -43.033109
RightArm 62.588306 -8.146775 110.925358
RightForeArm 46.738506 -0.000000 136.088548
RightHand 20.280236 -0.000000 -46.399872
RightHandThumb1 -24.326973 -0.000000 -32.862282
LeftUpLeg -21.084804 3.942521 -0.685487
LeftLeg -1.152010 -0.000000 0.000000
LeftFoot -5.531466 -2.828366 -1.352044
LeftToeBase 3.879322 -0.000000 -0.000000
RightUpLeg -21.176486 -7.789712 3.566051
RightLeg -0.951671 -0.000000 0.000000
RightFoot -8.606686 -1.748721 11.995480
RightToeBase 15.802629 -0.000000 -0.000000
2374
root 0.535210 32.503385 -6.497753 26.463039 2.173108 -0.204634
Spine -34.995013 -29.869450 18.205334
Head -8.397945 23.969979 2.067051
LeftShoulder -5.690482 -51.664238 63.475497
LeftArm 90.386513 28.518047 -95.738401
LeftForeArm 4.045209 -0.000000 96.113419
LeftHand -16.444115 -0.000000 -10.438445
LeftHandThumb1 -26.253704 0.000000 33.147579
RightShoulder -7.985612 10.832399 -43.022515
RightArm 62.587926 -8.134426 110.921545
RightForeArm 46.590124 -0.000000 136.110023
RightHand 20.193605 -0.000000 -46.518684
RightHandThumb1 -24.326973 -0.000000 -32.862282
LeftUpLeg -21.098599 3.943064 -0.681376
LeftLeg -1.165051 -0.000000 0.000000
LeftFoot -5.522728 -2.863281 -1.337114
LeftToeBase 3.858600 -0.000000 -0.000000
RightUpLeg -21.188851 -7.779786 3.564368
RightLeg -0.951497 -0.000000 0.000000
RightFoot -8.613817 -1.765717 12.044383
RightToeBase 15.789388 -0.000000 -0.000000
2375
root 0.536466 32.503054 -6.495504 26.471737 2.180062 -0.201885
Spine -35.031158 -29.884703 18.237744
Head -8.356574 23.941350 2.078401
LeftShoulder -5.616479 -51.567226 63.397726
LeftArm 90.531229 28.548367 -95.648814
LeftForeArm 4.024902 -0.000000 96.086335
LeftHand -16.457785 -0.000000 -10.417114
LeftHandThumb1 -26.253704 0.000000 33.147579
RightShoulder -7.997668 10.787771 -43.008903
RightArm 62.586642 -8.122646 110.933840
RightForeArm 46.484682 -0.000000 136.125449
RightHand 20.262618 -0.000000 -46.455979
RightHandThumb1 -24.326973 -0.000000 -32.862282
LeftUpLeg -21.097960 3.937029 -0.682743
LeftLeg -1.176716 -0.000000 0.000000
LeftFoot -5.524297 -2.872125 -1.364225
LeftToeBase 3.906818 -0.000000 -0.000000
RightUpLeg -21.189377 -7.778447 3.558957
RightLeg -0.956759 -0.000000 0.000000
RightFoot -8.633172 -1.768663 12.021620
RightToeBase 15.864365 -0.000000 -0.000000
2376
root 0.537846 32.503006 -6.493671 26.504033 2.207818 -0.194167
Spine -35.115535 -29.926715 18.310325
Head -8.299526 23.949344 2.086819
LeftShoulder -5.401836 -51.098489 63.173051
LeftArm 91.136180 28.595396 -95.302189
LeftForeArm 3.998551 -0.000000 96.034641
LeftHand -16.527574 -0.000000 -10.417774
LeftHandThumb1 -26.253704 0.000000 33.147579
RightShoulder -7.985989 10.798370 -43.002423
RightArm 62.542165 -8.084389 110.970948
RightForeArm 46.422628 0.000000 136.138589
RightHand 20.347239 -0.000000 -46.357680
RightHandThumb1 -24.326973 -0.000000 -32.862282
LeftUpLeg -21.132054 3.905211 -0.678785
LeftLeg -1.170783 -0.000000 0.000000
LeftFoot -5.527656 -2.876049 -1.372394
LeftToeBase 3.924389 -0.000000 -0.000000
RightUpLeg -21.216626 -7.797005 3.562336
RightLeg -0.957584 -0.000000 0.000000
RightFoot -8.630800 -1.768972 12.023020
RightToeBase 15.777419 -0.000000 -0.000000
2377
root 0.538589 32.502950 -6.492085 26.516945 2.208044 -0.194213
Spine -35.154952 -29.918499 18.332728
Head -8.237911 23.918934 2.091944
LeftShoulder -5.031576 -50.396405 62.778948
LeftArm 92.114189 28.652765 -94.706369
LeftForeArm 3.996078 -0.000000 95.934283
LeftHand -16.574704 -0.000000 -10.426515
LeftHandThumb1 -26.253704 0.000000 33.147579
RightShoulder -8.001853 10.810626 -42.994326
RightArm 62.482232 -8.052172 111.009229
RightForeArm 46.376181 -0.000000 136.155431
RightHand 20.391206 -0.000000 -46.399683
RightHandThumb1 -24.326973 -0.000000 -32.862282
LeftUpLeg -21.145261 3.913479 -0.682841
LeftLeg -1.165385 -0.000000 0.000000
LeftFoot -5.527241 -2.894739 -1.376951
LeftToeBase 3.908388 -0.000000 -0.000000
RightUpLeg -21.227423 -7.774103 3.555390
RightLeg -0.951880 -0.000000 0.000000
RightFoot -8.647218 -1.801892 11.984381
RightToeBase 15.850674 -0.000000 -0.000000
2378
root 0.539495 32.502492 -6.489965 26.518349 2.222304 -0.183684
Spine -35.196446 -29.956355 18.369225
Head -8.180496 23.934846 2.092974
LeftShoulder -4.963876 -50.287321 62.724156
LeftArm 92.264111 28.669152 -94.610984
LeftForeArm 3.977592 -0.000000 95.917463
LeftHand -16.622910 -0.000000 -10.415475
LeftHandThumb1 -26.253704 0.000000 33.147579
RightShoulder -7.987568 10.757233 -42.958602
RightArm 62.514134 -8.062046 111.032475
RightForeArm 46.393266 0.000000 136.180718
RightHand 20.398760 -0.000000 -46.357594
RightHandThumb1 -24.326973 -0.000000 -32.862282
LeftUpLeg -21.144657 3.878933 -0.679394
LeftLeg -1.163100 -0.000000 0.000000
LeftFoot -5.530241 -2.878589 -1.388946
LeftToeBase 3.900024 -0.000000 -0.000000
RightUpLeg -21.223772 -7.792855 3.552745
RightLeg -0.954984 -0.000000 0.000000
RightFoot -8.654416 -1.806175 12.013170
RightToeBase 15.817140 -0.000000 -0.000000
2379
root 0.539958 32.502361 -6.487879 26.518418 2.232744 -0.181149
Spine -35.228342 -29.973652 18.398207
Head -8.124662 23.928564 2.085912
LeftShoulder -4.935415 -50.218359 62.677805
LeftArm 92.385214 28.708999 -94.526191
LeftForeArm 3.971986 -0.000000 95.882945
LeftHand -16.669555 -0.000000 -10.412613
LeftHandThumb1 -26.253704 0.000000 33.147579
RightShoulder -7.983529 10.691682 -42.915615
RightArm 62.554063 -8.076868 111.054327
RightForeArm 46.361141 0.000000 136.204556
RightHand 20.360781 -0.000000 -46.325488
RightHandThumb1 -24.326973 -0.000000 -32.862282
LeftUpLeg -21.141992 3.870747 -0.678921
LeftLeg -1.163515 -0.000000 0.000000
LeftFoot -5.526716 -2.884503 -1.395310
LeftToeBase 3.903703 -0.000000 -0.000000
RightUpLeg -21.220723 -7.799100 3.552360
RightLeg -0.950165 -0.000000 0.000000
RightFoot -8.672645 -1.810078 12.029699
RightToeBase 15.840303 -0.000000 -0.000000
2380
root 0.540863 32.501939 -6.486036 26.516637 2.228880 -0.179608
Spine -35.252298 -29.974416 18.411484
Head -8.067675 23.915031 2.071138
LeftShoulder -4.921476 -50.200172 62.668479
LeftArm 92.397526 28.727212 -94.508146
LeftForeArm 3.945492 0.000000 95.875646
LeftHand -16.557847 -0.000000 -10.478735
LeftHandThumb1 -26.253704 0.000000 33.147579
RightShoulder -7.983278 10.655217 -42.879852
RightArm 62.555811 -8.084330 111.086784
RightForeArm 46.306112 -0.000000 136.225293
RightHand 20.332014 -0.000000 -46.319347
RightHandThumb1 -24.326973 -0.000000 -32.862282
LeftUpLeg -21.137117 3.862527 -0.675776
LeftLeg -1.162705 -0.000000 0.000000
LeftFoot -5.535375 -2.890880 -1.410980
LeftToeBase 3.922721 -0.000000 -0.000000
RightUpLeg -21.212481 -7.798586 3.549614
RightLeg -0.960090 -0.000000 0.000000
RightFoot -8.658414 -1.816677 11.997067
RightToeBase 15.819930 -0.000000 -0.000000
